<!-- <svg
    xmlns="http://www.w3.org/2000/svg"
    viewBox="0 0 512 512"
    id="vector">
    <path
        id="path"
        d="M 256 0 C 114.51 0 0 114.5 0 256 C 0 397.49 114.5 512 256 512 C 397.49 512 512 397.5 512 256 C 512 114.51 397.5 0 256 0 Z M 195.086 363.99 C 195.086 363.99 106.664 275.532 100.308 269.188 C 86.169 255.049 86.169 232.041 100.308 217.914 C 114.483 203.739 137.407 203.739 151.582 217.914 L 208.826 275.158 C 215.944 282.276 227.496 282.227 234.554 275.073 L 360.244 147.571 C 374.371 133.239 397.452 133.142 411.699 147.39 C 425.729 161.42 425.814 184.332 411.88 198.471 C 275.387 336.957 249.466 363.978 249.466 363.978 C 234.481 378.962 210.083 378.975 195.086 363.99 Z"
        fill="#5f30e2"
        stroke-width="1"/>
</svg> -->

<!-- <svg xmlns="http://www.w3.org/2000/svg" x="0px" y="0px" width="100" height="100" viewBox="0,0,256,256">
<g fill="#ccffd3" fill-rule="nonzero" stroke="none" stroke-width="1" stroke-linecap="butt" stroke-linejoin="miter" stroke-miterlimit="10" stroke-dasharray="" stroke-dashoffset="0" font-family="none" font-weight="none" font-size="none" text-anchor="none" style="mix-blend-mode: normal"><g transform="scale(8.53333,8.53333)"><path d="M15,3c-6.627,0 -12,5.373 -12,12c0,6.627 5.373,12 12,12c6.627,0 12,-5.373 12,-12c0,-2.17938 -0.59,-4.21686 -1.60547,-5.97852l-11.24805,11.24609c-0.187,0.187 -0.44103,0.29297 -0.70703,0.29297c-0.265,0 -0.52003,-0.10497 -0.70703,-0.29297l-4.45313,-4.45312c-0.391,-0.391 -0.391,-1.02306 0,-1.41406c0.391,-0.391 1.02306,-0.391 1.41406,0l3.74609,3.74609l10.80078,-10.80078c-2.201,-2.655 -5.52223,-4.3457 -9.24023,-4.3457zM24.24023,7.3457c0.43165,0.52058 0.81351,1.08435 1.1543,1.67383l2.3125,-2.3125c0.391,-0.392 0.391,-1.02306 0,-1.41406c-0.391,-0.391 -1.02306,-0.391 -1.41406,0z"></path></g></g>
</svg> -->

<svg xmlns="http://www.w3.org/2000/svg" x="0px" y="0px" width="100" height="100" viewBox="0,0,256,256">
<g fill="#47ff60" fill-rule="nonzero" stroke="none" stroke-width="1" stroke-linecap="butt" stroke-linejoin="miter" stroke-miterlimit="10" stroke-dasharray="" stroke-dashoffset="0" font-family="none" font-weight="none" font-size="none" text-anchor="none" style="mix-blend-mode: normal"><g transform="scale(8.53333,8.53333)"><path d="M15,3c-6.627,0 -12,5.373 -12,12c0,6.627 5.373,12 12,12c6.627,0 12,-5.373 12,-12c0,-2.17938 -0.59,-4.21686 -1.60547,-5.97852l-11.24805,11.24609c-0.187,0.187 -0.44103,0.29297 -0.70703,0.29297c-0.265,0 -0.52003,-0.10497 -0.70703,-0.29297l-4.45313,-4.45312c-0.391,-0.391 -0.391,-1.02306 0,-1.41406c0.391,-0.391 1.02306,-0.391 1.41406,0l3.74609,3.74609l10.80078,-10.80078c-2.201,-2.655 -5.52223,-4.3457 -9.24023,-4.3457zM24.24023,7.3457c0.43165,0.52058 0.81351,1.08435 1.1543,1.67383l2.3125,-2.3125c0.391,-0.392 0.391,-1.02306 0,-1.41406c-0.391,-0.391 -1.02306,-0.391 -1.41406,0z"></path></g></g>
</svg>