<!-- <svg
    xmlns="http://www.w3.org/2000/svg"
    viewBox="0 0 512 512"
    id="vector">
    <path
        id="path_1"
        d="M 424 64 L 336 64 L 336 48 C 336 21.533 314.467 0 288 0 L 224 0 C 197.533 0 176 21.533 176 48 L 176 64 L 88 64 C 65.944 64 48 81.944 48 104 L 48 160 C 48 168.836 55.164 176 64 176 L 72.744 176 L 86.567 466.283 C 87.788 491.919 108.848 512 134.512 512 L 377.488 512 C 403.153 512 424.213 491.919 425.433 466.283 L 439.256 176 L 448 176 C 456.836 176 464 168.836 464 160 L 464 104 C 464 81.944 446.056 64 424 64 Z M 208 48 C 208 39.178 215.178 32 224 32 L 288 32 C 296.822 32 304 39.178 304 48 L 304 64 L 208 64 Z M 80 104 C 80 99.589 83.589 96 88 96 L 424 96 C 428.411 96 432 99.589 432 104 L 432 144 L 80 144 Z M 393.469 464.761 C 393.062 473.306 386.042 480 377.488 480 L 134.512 480 C 125.957 480 118.937 473.306 118.531 464.761 L 104.78 176 L 407.22 176 Z"
        fill="#5f30e2"
        stroke-width="1"/>
    <path
        id="path_2"
        d="M 256 448 C 264.836 448 272 440.836 272 432 L 272 224 C 272 215.164 264.836 208 256 208 C 247.164 208 240 215.164 240 224 L 240 432 C 240 440.836 247.163 448 256 448 Z M 336 448 C 344.836 448 352 440.836 352 432 L 352 224 C 352 215.164 344.836 208 336 208 C 327.164 208 320 215.164 320 224 L 320 432 C 320 440.836 327.163 448 336 448 Z M 176 448 C 184.836 448 192 440.836 192 432 L 192 224 C 192 215.164 184.836 208 176 208 C 167.164 208 160 215.164 160 224 L 160 432 C 160 440.836 167.163 448 176 448 Z"
        fill="#5f30e2"
        stroke-width="1"/>
</svg> -->

<!-- <svg xmlns="http://www.w3.org/2000/svg" x="0px" y="0px" width="100" height="100" viewBox="0,0,256,256">
<g fill="none" fill-rule="nonzero" stroke="none" stroke-width="none" stroke-linecap="butt" stroke-linejoin="none" stroke-miterlimit="10" stroke-dasharray="" stroke-dashoffset="0" font-family="none" font-weight="none" font-size="none" text-anchor="none" style="mix-blend-mode: normal"><path transform="scale(8,8)" d="M19,4c0.52344,0 1.05859,0.18359 1.4375,0.5625c0.37891,0.37891 0.5625,0.91406 0.5625,1.4375v1h6v2h-1v16c0,1.64453 -1.35547,3 -3,3h-12c-1.64453,0 -3,-1.35547 -3,-3v-16h-1v-2h6v-1c0,-0.52344 0.18359,-1.05859 0.5625,-1.4375c0.37891,-0.37891 0.91406,-0.5625 1.4375,-0.5625z" id="strokeMainSVG" fill="#9f0013" stroke="#9f0013" stroke-width="3" stroke-linejoin="round"></path><g transform="scale(8,8)" fill="#fdfdfd" stroke="none" stroke-width="1" stroke-linejoin="miter"><path d="M15,4c-0.52344,0 -1.05859,0.18359 -1.4375,0.5625c-0.37891,0.37891 -0.5625,0.91406 -0.5625,1.4375v1h-6v2h1v16c0,1.64453 1.35547,3 3,3h12c1.64453,0 3,-1.35547 3,-3v-16h1v-2h-6v-1c0,-0.52344 -0.18359,-1.05859 -0.5625,-1.4375c-0.37891,-0.37891 -0.91406,-0.5625 -1.4375,-0.5625zM15,6h4v1h-4zM10,9h14v16c0,0.55469 -0.44531,1 -1,1h-12c-0.55469,0 -1,-0.44531 -1,-1zM12,12v11h2v-11zM16,12v11h2v-11zM20,12v11h2v-11z"></path></g></g>
</svg> -->

<!-- <svg xmlns="http://www.w3.org/2000/svg" x="0px" y="0px" width="64" height="64" viewBox="0,0,256,256"
style="fill:#000000;">
<g fill="#9f0013" fill-rule="nonzero" stroke="none" stroke-width="1" stroke-linecap="butt" stroke-linejoin="miter" stroke-miterlimit="10" stroke-dasharray="" stroke-dashoffset="0" font-family="none" font-weight="none" font-size="none" text-anchor="none" style="mix-blend-mode: normal"><g transform="scale(8,8)"><path d="M15,4c-0.52344,0 -1.05859,0.18359 -1.4375,0.5625c-0.37891,0.37891 -0.5625,0.91406 -0.5625,1.4375v1h-6v2h1v16c0,1.64453 1.35547,3 3,3h12c1.64453,0 3,-1.35547 3,-3v-16h1v-2h-6v-1c0,-0.52344 -0.18359,-1.05859 -0.5625,-1.4375c-0.37891,-0.37891 -0.91406,-0.5625 -1.4375,-0.5625zM15,6h4v1h-4zM10,9h14v16c0,0.55469 -0.44531,1 -1,1h-12c-0.55469,0 -1,-0.44531 -1,-1zM12,12v11h2v-11zM16,12v11h2v-11zM20,12v11h2v-11z"></path></g></g>
</svg> -->

<svg xmlns="http://www.w3.org/2000/svg" x="0px" y="0px" width="100" height="100" viewBox="0,0,256,256">
<g fill-opacity="0.38824" fill="#9f0013" fill-rule="nonzero" stroke="none" stroke-width="1" stroke-linecap="butt" stroke-linejoin="miter" stroke-miterlimit="10" stroke-dasharray="" stroke-dashoffset="0" font-family="none" font-weight="none" font-size="none" text-anchor="none" style="mix-blend-mode: normal"><g transform="scale(10.66667,10.66667)"><path d="M10,2l-1,1h-5v2h1v15c0,0.52222 0.19133,1.05461 0.56836,1.43164c0.37703,0.37703 0.90942,0.56836 1.43164,0.56836h10c0.52222,0 1.05461,-0.19133 1.43164,-0.56836c0.37703,-0.37703 0.56836,-0.90942 0.56836,-1.43164v-15h1v-2h-5l-1,-1zM7,5h10v15h-10zM9,7v11h2v-11zM13,7v11h2v-11z"></path></g></g>
</svg>