<!-- <svg
    xmlns="http://www.w3.org/2000/svg"
    viewBox="0 0 438 438"
    id="vector">
    <path
        id="path"
        d="M 421.125 134.191 C 409.517 107.161 393.908 83.844 374.306 64.242 C 354.7 44.639 331.384 29.033 304.353 17.42 C 277.325 5.807 248.969 0.005 219.275 0.005 C 191.297 0.005 164.223 5.282 138.048 15.848 C 111.879 26.412 88.61 41.305 68.243 60.531 L 31.123 23.696 C 25.412 17.795 18.848 16.464 11.422 19.697 C 3.807 22.937 0 28.554 0 36.547 L 0 164.454 C 0 169.402 1.809 173.685 5.426 177.301 C 9.045 180.918 13.328 182.727 18.276 182.727 L 146.183 182.727 C 154.179 182.727 159.793 178.92 163.029 171.306 C 166.263 163.883 164.932 157.318 159.03 151.605 L 119.915 112.207 C 133.243 99.644 148.468 89.985 165.598 83.227 C 182.729 76.47 200.619 73.089 219.273 73.089 C 239.066 73.089 257.96 76.947 275.947 84.652 C 293.937 92.362 309.491 102.783 322.626 115.917 C 335.76 129.048 346.181 144.607 353.891 162.596 C 361.594 180.583 365.451 199.471 365.451 219.27 C 365.451 239.068 361.595 257.956 353.891 275.942 C 346.181 293.929 335.76 309.486 322.626 322.621 C 309.491 335.755 293.931 346.179 275.947 353.886 C 257.96 361.593 239.066 365.447 219.273 365.447 C 196.622 365.447 175.209 360.498 155.032 350.604 C 134.858 340.71 117.823 326.721 103.928 308.631 C 102.597 306.729 100.407 305.585 97.361 305.202 C 94.505 305.202 92.125 306.057 90.222 307.768 L 51.108 347.17 C 49.587 348.7 48.778 350.648 48.682 353.023 C 48.588 355.408 49.209 357.547 50.54 359.45 C 71.289 384.575 96.411 404.037 125.913 417.832 C 155.415 431.63 186.538 438.533 219.275 438.533 C 248.969 438.533 277.325 432.725 304.353 421.117 C 331.384 409.51 354.693 393.897 374.302 374.296 C 393.907 354.687 409.513 331.375 421.124 304.347 C 432.735 277.319 438.535 248.955 438.535 219.267 C 438.536 189.569 432.732 161.22 421.125 134.191 Z"
        fill="#5f30e2"
        stroke-width="1"/>
</svg> -->

<!-- <svg xmlns="http://www.w3.org/2000/svg" x="0px" y="0px" width="100" height="100" viewBox="0,0,256,256">
<g fill="none" fill-rule="nonzero" stroke="none" stroke-width="1" stroke-linecap="butt" stroke-linejoin="miter" stroke-miterlimit="10" stroke-dasharray="" stroke-dashoffset="0" font-family="none" font-weight="none" font-size="none" text-anchor="none" style="mix-blend-mode: normal"><g transform="scale(6.4,6.4)"><path d="M20,38.5c-10.201,0 -18.5,-8.299 -18.5,-18.5c0,-5.375 2.35,-10.478 6.448,-13.999l0.409,-0.351l-4.15,-4.15h12.293v12.293l-3.874,-3.874l-0.349,0.274c-3.036,2.39 -4.777,5.964 -4.777,9.807c0,6.893 5.607,12.5 12.5,12.5c6.893,0 12.5,-5.607 12.5,-12.5c0,-5.153 -3.2,-9.789 -8,-11.647v-6.294c8.148,2.04 14,9.487 14,17.941c0,10.201 -8.299,18.5 -18.5,18.5z" fill="#fdfdfd"></path><path d="M16,2v6.395v4.191l-2.707,-2.707l-0.628,-0.628l-0.697,0.549c-3.157,2.485 -4.968,6.202 -4.968,10.2c0,7.168 5.832,13 13,13c7.168,0 13,-5.832 13,-13c0,-5.244 -3.186,-9.973 -8,-11.985v-5.303c7.603,2.199 13,9.279 13,17.288c0,9.925 -8.075,18 -18,18c-9.925,0 -18,-8.075 -18,-18c0,-5.23 2.287,-10.194 6.274,-13.619l0.818,-0.703l-0.763,-0.763l-2.915,-2.915h10.586M17,1h-14l4.622,4.622c-4.048,3.478 -6.622,8.619 -6.622,14.378c0,10.493 8.507,19 19,19c10.493,0 19,-8.507 19,-19c0,-9.12 -6.429,-16.732 -15,-18.57v7.27c4.653,1.653 8,6.087 8,11.3c0,6.617 -5.383,12 -12,12c-6.617,0 -12,-5.383 -12,-12c0,-3.819 1.797,-7.218 4.586,-9.414l4.414,4.414v-6.605v-7.136v-0.259z" fill="#6394ed"></path></g></g>
</svg> -->

<!-- <svg xmlns="http://www.w3.org/2000/svg" x="0px" y="0px" width="100" height="100" viewBox="0,0,256,256">
<g fill="none" fill-rule="nonzero" stroke="none" stroke-width="1" stroke-linecap="butt" stroke-linejoin="miter" stroke-miterlimit="10" stroke-dasharray="" stroke-dashoffset="0" font-family="none" font-weight="none" font-size="none" text-anchor="none" style="mix-blend-mode: normal"><g transform="scale(6.4,6.4)"><path d="M20,38.5c-10.201,0 -18.5,-8.299 -18.5,-18.5c0,-5.375 2.35,-10.478 6.448,-13.999l0.409,-0.351l-4.15,-4.15h12.293v12.293l-3.874,-3.874l-0.349,0.274c-3.036,2.39 -4.777,5.964 -4.777,9.807c0,6.893 5.607,12.5 12.5,12.5c6.893,0 12.5,-5.607 12.5,-12.5c0,-5.153 -3.2,-9.789 -8,-11.647v-6.294c8.148,2.04 14,9.487 14,17.941c0,10.201 -8.299,18.5 -18.5,18.5z" fill="#6394ed"></path><path d="M16,2v6.395v4.191l-2.707,-2.707l-0.628,-0.628l-0.697,0.549c-3.157,2.485 -4.968,6.202 -4.968,10.2c0,7.168 5.832,13 13,13c7.168,0 13,-5.832 13,-13c0,-5.244 -3.186,-9.973 -8,-11.985v-5.303c7.603,2.199 13,9.279 13,17.288c0,9.925 -8.075,18 -18,18c-9.925,0 -18,-8.075 -18,-18c0,-5.23 2.287,-10.194 6.274,-13.619l0.818,-0.703l-0.763,-0.763l-2.915,-2.915h10.586M17,1h-14l4.622,4.622c-4.048,3.478 -6.622,8.619 -6.622,14.378c0,10.493 8.507,19 19,19c10.493,0 19,-8.507 19,-19c0,-9.12 -6.429,-16.732 -15,-18.57v7.27c4.653,1.653 8,6.087 8,11.3c0,6.617 -5.383,12 -12,12c-6.617,0 -12,-5.383 -12,-12c0,-3.819 1.797,-7.218 4.586,-9.414l4.414,4.414v-6.605v-7.136v-0.259z" fill="#347cff"></path></g></g>
</svg> -->
<svg xmlns="http://www.w3.org/2000/svg" x="0px" y="0px" width="100" height="100" viewBox="0 0 40 40">
<path fill="#dff0fe" d="M20,38.5C9.799,38.5,1.5,30.201,1.5,20c0-5.375,2.35-10.478,6.448-13.999L8.357,5.65L4.207,1.5H16.5 v12.293l-3.874-3.874l-0.349,0.274C9.241,12.583,7.5,16.157,7.5,20c0,6.893,5.607,12.5,12.5,12.5S32.5,26.893,32.5,20 c0-5.153-3.2-9.789-8-11.647V2.059c8.148,2.04,14,9.487,14,17.941C38.5,30.201,30.201,38.5,20,38.5z"></path><path fill="#4788c7" d="M16,2v6.395v4.191l-2.707-2.707l-0.628-0.628L11.968,9.8C8.811,12.285,7,16.002,7,20 c0,7.168,5.832,13,13,13s13-5.832,13-13c0-5.244-3.186-9.973-8-11.985V2.712C32.603,4.911,38,11.991,38,20c0,9.925-8.075,18-18,18 S2,29.925,2,20C2,14.77,4.287,9.806,8.274,6.381l0.818-0.703L8.329,4.915L5.414,2H16 M17,1H3l4.622,4.622C3.574,9.1,1,14.241,1,20 c0,10.493,8.507,19,19,19s19-8.507,19-19c0-9.12-6.429-16.732-15-18.57V8.7c4.653,1.653,8,6.087,8,11.3c0,6.617-5.383,12-12,12 S8,26.617,8,20c0-3.819,1.797-7.218,4.586-9.414L17,15V8.395V1.259V1L17,1z"></path>
</svg>