<svg xmlns="http://www.w3.org/2000/svg" x="0px" y="0px" width="100" height="100" viewBox="0,0,256,256">
<g fill="none" fill-rule="nonzero" stroke="none" stroke-width="1" stroke-linecap="butt" stroke-linejoin="miter" stroke-miterlimit="10" stroke-dasharray="" stroke-dashoffset="0" font-family="none" font-weight="none" font-size="none" text-anchor="none" style="mix-blend-mode: normal"><g transform="scale(6.4,6.4)"><path d="M20,38.5c-10.201,0 -18.5,-8.299 -18.5,-18.5c0,-5.375 2.35,-10.478 6.448,-13.999l0.409,-0.351l-4.15,-4.15h12.293v12.293l-3.874,-3.874l-0.349,0.274c-3.036,2.39 -4.777,5.964 -4.777,9.807c0,6.893 5.607,12.5 12.5,12.5c6.893,0 12.5,-5.607 12.5,-12.5c0,-5.153 -3.2,-9.789 -8,-11.647v-6.294c8.148,2.04 14,9.487 14,17.941c0,10.201 -8.299,18.5 -18.5,18.5z" fill="#6394ed"></path><path d="M16,2v6.395v4.191l-2.707,-2.707l-0.628,-0.628l-0.697,0.549c-3.157,2.485 -4.968,6.202 -4.968,10.2c0,7.168 5.832,13 13,13c7.168,0 13,-5.832 13,-13c0,-5.244 -3.186,-9.973 -8,-11.985v-5.303c7.603,2.199 13,9.279 13,17.288c0,9.925 -8.075,18 -18,18c-9.925,0 -18,-8.075 -18,-18c0,-5.23 2.287,-10.194 6.274,-13.619l0.818,-0.703l-0.763,-0.763l-2.915,-2.915h10.586M17,1h-14l4.622,4.622c-4.048,3.478 -6.622,8.619 -6.622,14.378c0,10.493 8.507,19 19,19c10.493,0 19,-8.507 19,-19c0,-9.12 -6.429,-16.732 -15,-18.57v7.27c4.653,1.653 8,6.087 8,11.3c0,6.617 -5.383,12 -12,12c-6.617,0 -12,-5.383 -12,-12c0,-3.819 1.797,-7.218 4.586,-9.414l4.414,4.414v-6.605v-7.136v-0.259z" fill="#4788c7"></path></g></g>
</svg>